<svg width="69" height="65" viewBox="0 0 69 65" fill="none" xmlns="http://www.w3.org/2000/svg">
<path fill-rule="evenodd" clip-rule="evenodd" d="M29.2851 44.005C37.8202 44.005 44.7391 37.2323 44.7391 28.8776C44.7391 20.5228 37.8202 13.75 29.2851 13.75C20.75 13.75 13.831 20.5228 13.831 28.8776C13.831 37.2323 20.75 44.005 29.2851 44.005ZM29.2851 47.755C39.9359 47.755 48.5701 39.3033 48.5701 28.8776C48.5701 18.4518 39.9359 10 29.2851 10C18.6342 10 10 18.4518 10 28.8776C10 39.3033 18.6342 47.755 29.2851 47.755Z" fill="#1D1C1C"/>
<path d="M41.4345 41.525L44.0276 38.7642L59 52.2395L56.407 55L41.4345 41.525Z" fill="#1D1C1C"/>
</svg>
